<svg xmlns="http://www.w3.org/2000/svg" viewBox="0 0 720 1080">
  <defs>
    <linearGradient id="bg" x1="0" y1="0" x2="0" y2="1">
      <stop offset="0" stop-color="#1f4f8a"/>
      <stop offset="1" stop-color="#1a3d73"/>
    </linearGradient>
    <linearGradient id="gold" x1="0" y1="0" x2="0" y2="1">
      <stop offset="0" stop-color="#f3d27b"/>
      <stop offset="0.5" stop-color="#d6a954"/>
      <stop offset="1" stop-color="#a9752e"/>
    </linearGradient>
    <linearGradient id="hand" x1="0" y1="0" x2="0" y2="1">
      <stop offset="0" stop-color="#e6b17a"/>
      <stop offset="1" stop-color="#c88042"/>
    </linearGradient>
    <filter id="shadow" x="-0.1" y="-0.1" width="1.2" height="1.2">
      <feDropShadow dx="0" dy="12" stdDeviation="14" flood-color="#132542" flood-opacity="0.45"/>
    </filter>
  </defs>
  <rect width="720" height="1080" fill="url(#bg)" rx="32"/>
  <g fill="#f6c85a" font-family="'Montserrat', 'Raleway', 'Helvetica Neue', Arial, sans-serif" text-anchor="middle">
    <text x="360" y="190" font-size="72" font-weight="700" letter-spacing="3">MANUAL</text>
    <text x="360" y="268" font-size="72" font-weight="700" letter-spacing="3">DE LA MANO</text>
    <text x="360" y="346" font-size="72" font-weight="700" letter-spacing="3">DERECHA</text>
  </g>
  <g font-family="'Montserrat', 'Helvetica Neue', Arial, sans-serif" fill="#ffffff" text-anchor="middle" font-size="32" font-weight="500">
    <text x="360" y="420">Cómo formar un líder</text>
    <text x="360" y="464">que cuida de su empresa</text>
    <text x="360" y="508">como si fuera dueño</text>
  </g>
  <g transform="translate(220 560)" filter="url(#shadow)">
    <path d="M160 240c-44 0-112 22-140 40-4 3-6 7-6 12v28h292v-28c0-5-2-9-6-12-28-18-96-40-140-40z" fill="#102544" opacity="0.45"/>
    <g transform="translate(0 -10)">
      <path d="M60 214c22-24 104-24 126 0 12 12 22 54 26 66H34c4-12 14-54 26-66z" fill="url(#hand)"/>
      <path d="M82 196h82c9 0 18 7 18 18v22H64v-22c0-11 9-18 18-18z" fill="url(#hand)"/>
      <path d="M116 40c-18 0-30 20-24 36l14 38-24 22c-6 6-10 14-10 22v26h88v-26c0-8-4-16-10-22l-24-22 14-38c6-16-6-36-24-36z" fill="url(#gold)"/>
      <path d="M84 210h64l12 58c2 12-6 24-18 24H90c-12 0-20-12-18-24z" fill="url(#gold)"/>
      <path d="M70 292h92v44H70z" fill="url(#gold)"/>
      <path d="M58 340h116l-10 40c-2 8-10 14-18 14H86c-8 0-16-6-18-14z" fill="url(#gold)"/>
    </g>
  </g>
</svg>
